<?xml version="1.0" standalone="no"?>
<!DOCTYPE svg PUBLIC "-//W3C//DTD SVG 20010904//EN"
 "http://www.w3.org/TR/2001/REC-SVG-20010904/DTD/svg10.dtd">
<svg version="1.0" xmlns="http://www.w3.org/2000/svg"
 width="3840.000000pt" height="2160.000000pt" viewBox="0 0 3840.000000 2160.000000"
 preserveAspectRatio="xMidYMid meet">
<metadata>
Created by potrace 1.16, written by Peter Selinger 2001-2019
</metadata>
<g transform="translate(0.000000,2160.000000) scale(0.100000,-0.100000)"
fill="#000000" stroke="none">
<path d="M14185 15403 c-894 -26 -1670 -81 -2085 -148 -14 -2 -110 -18 -215
-35 -629 -101 -1069 -218 -1575 -417 -576 -227 -1123 -549 -1721 -1011 -125
-96 -356 -283 -394 -318 -11 -11 -47 -41 -80 -69 -76 -64 -310 -271 -395 -349
-36 -34 -95 -88 -130 -121 -151 -138 -225 -209 -405 -384 -519 -507 -2634
-2604 -5483 -5438 l-927 -922 2607 -1 2606 0 239 233 c131 127 380 369 553
537 173 168 396 384 495 480 226 221 434 423 640 621 88 84 241 233 340 329
99 97 355 344 569 550 1710 1645 1913 1833 2264 2100 427 322 848 536 1322
668 132 37 524 114 703 137 58 8 110 15 137 20 134 23 680 61 1050 74 393 13
690 14 7148 15 l6242 1 1720 1720 c946 946 1720 1723 1720 1728 0 6 -16716 7
-16945 0z"/>
<path d="M27495 10800 l-4610 -4610 2780 0 2780 0 4610 4610 4610 4610 -2780
0 -2780 0 -4610 -4610z"/>
<path d="M14979 11396 c-2 -2 -153 -6 -335 -10 -183 -4 -342 -9 -355 -11 -13
-2 -96 -6 -183 -10 -88 -4 -167 -8 -175 -10 -9 -1 -68 -6 -131 -10 -63 -4
-123 -9 -132 -10 -9 -2 -48 -7 -85 -10 -37 -4 -79 -8 -93 -10 -14 -2 -97 -13
-185 -25 -355 -46 -617 -101 -855 -180 -290 -96 -396 -142 -680 -298 -186
-102 -509 -343 -765 -571 -126 -113 -412 -386 -566 -540 -41 -42 -848 -848
-1792 -1791 l-1717 -1715 2422 -3 2422 -2 691 688 c807 805 884 872 1177 1026
185 98 442 176 693 210 156 22 174 24 315 35 287 23 637 25 4853 25 l4407 1
1605 1605 c883 883 1605 1608 1605 1613 0 7 -12133 11 -12141 3z"/>
<path d="M30780 7255 l0 -95 33 -1 c17 0 98 -1 180 -1 l147 0 0 -484 0 -484
110 0 110 0 0 484 0 484 168 0 c92 0 173 1 180 1 9 1 12 27 12 96 l0 95 -470
0 -470 0 0 -95z"/>
<path d="M31840 6770 l0 -580 105 0 105 0 1 423 c0 306 3 414 11 392 6 -16 31
-84 55 -150 25 -66 76 -208 113 -315 37 -107 81 -229 98 -270 l30 -75 88 -3
89 -3 21 58 c11 32 64 180 117 328 53 149 112 311 131 360 l35 90 1 -417 0
-418 105 0 105 0 0 580 0 580 -144 0 -143 0 -23 -57 c-12 -32 -64 -182 -116
-333 -145 -429 -173 -505 -178 -489 -3 8 -21 59 -41 114 -20 55 -76 215 -125
355 -49 140 -102 289 -117 330 l-29 75 -147 3 -147 3 0 -581z"/>
</g>
</svg>
